<svg width="476" height="532" viewBox="0 0 476 532" fill="none" xmlns="http://www.w3.org/2000/svg">
<path d="M417.967 498.272C398.214 509.763 376.24 516.919 353.564 519.754C320.19 523.932 252.367 531.81 214.605 531.994C179.766 532.165 129.031 528.035 99.9369 525.356C77.8672 523.325 56.6765 515.42 38.9745 502.089C6.69789 477.786 0 447.103 0 403.411L23.0508 175.501C23.0508 118.198 81.022 24.7473 138.312 24.7473L303.217 20.3105C360.507 20.3105 380.635 47.1968 393.649 102.782C393.649 102.782 469.895 346.653 475.216 400.746C479.209 441.317 457.262 475.407 417.961 498.266L417.967 498.272Z" fill="#35C2D6"/>
<path opacity="0.33" d="M43.5859 159.46C43.5859 114.363 92.6002 40.815 141.042 40.815L316.885 36.4199C365.327 36.4199 382.675 108.519 389.45 154.928H380.68C380.68 154.928 374.478 44.1318 318.226 44.1318C261.975 44.1318 169.693 47.0504 139.715 48.6711C109.737 50.2917 52.4438 106.816 52.4438 159.604" fill="white"/>
<path d="M161.47 355.448C161.47 355.448 161.741 340.344 161.49 327.93C159.918 251.606 362.118 190.616 344.812 179.332C322.566 164.831 294.391 155.417 266.615 156.914C192.559 160.91 137.93 227.548 149.327 301.102C159.966 369.806 161.477 355.448 161.477 355.448H161.47Z" fill="black"/>
<path d="M174.352 24.295C174.807 24.45 186.217 24.0996 186.217 24.0996L188.565 34.5229L175.347 34.2467L174.352 24.2883V24.295Z" fill="#123D3D"/>
<path d="M256.793 22.6111C257.177 22.7025 266.872 22.2031 266.872 22.2031L269.111 28.941L259.254 32.6264L256.793 22.6111Z" fill="#123D3D"/>
<path d="M184.777 24.3571L188.361 34.5228C188.361 34.5228 193.466 4.97871 223.21 5.5964C252.954 6.21409 259.636 31.868 259.636 31.868L257.028 22.5501C257.028 22.5501 245.671 0.937428 220.807 0.418305C195.943 -0.100819 184.777 24.3571 184.777 24.3571Z" fill="#1C696B"/>
<path d="M155.35 356.946C156.247 356.386 165.824 356.946 165.824 356.946L164.03 370.911H154.453L155.35 356.946Z" fill="white"/>
</svg>
