<svg width="46" height="89" viewBox="0 0 46 89" fill="none" xmlns="http://www.w3.org/2000/svg">
<g clip-path="url(#clip0_2836_7508)">
<path d="M11.1 25.7297C15.13 27.3097 14.43 31.2097 14.43 31.2097C14.43 31.2097 12.38 34.5397 8.42 32.7797C4.46 31.0197 0 25.1697 0 25.1697C0 25.1697 7.08 24.1397 11.1 25.7197V25.7297Z" fill="#82C341"/>
<path d="M37.4487 77.66C41.1187 69.75 32.1687 52.72 22.9287 42.12C20.5287 39.37 18.1087 37.93 14.2587 32.55C5.51872 20.31 12.6687 -0.0299669 12.8787 3.31483e-05C12.9687 0.0100331 12.1587 2.97003 11.9487 9.01003C11.7087 15.97 11.5487 20.74 13.3587 25.44C15.2387 30.33 17.5287 30.67 24.9387 38.93C29.6887 44.23 32.4687 47.33 35.2287 52.08C35.9087 53.24 44.1687 68.24 43.7987 78.55C43.7687 79.44 43.6287 88.42 35.3987 88.87C24.6987 89.45 35.3987 82.07 37.4487 77.66Z" fill="#B58863"/>
<path opacity="0.75" d="M22.9292 42.11C24.5692 43.99 26.0992 46.06 27.5192 48.22C32.8092 52.86 37.3592 58.38 41.1792 64.87C38.7992 58.32 35.6292 52.77 35.2292 52.08C32.4692 47.33 29.6792 44.22 24.9292 38.93C17.5192 30.67 15.2292 30.34 13.3492 25.44C11.5392 20.73 11.6992 15.97 11.9392 9.01003C12.1592 2.97003 12.9692 0.0100331 12.8792 3.31483e-05C12.6692 -0.0299669 5.50921 20.31 14.2592 32.54C18.1092 37.92 20.5292 39.36 22.9292 42.11Z" fill="#82C341"/>
<path opacity="0.5" d="M13.6991 28.48C14.2691 28.65 14.8291 28.84 15.3891 29.06C14.5791 28.04 13.9491 26.96 13.3591 25.44C11.5491 20.73 11.7091 15.97 11.9491 9.01005C12.1591 2.97005 12.9691 0.0100465 12.8791 4.64745e-05C12.6991 -0.0299535 7.61907 14.47 11.3091 26.35C12.0991 27.07 12.8991 27.77 13.6991 28.48Z" fill="#82C341"/>
<path d="M27.8919 33.3205C21.6919 36.5805 23.4319 42.2205 23.4319 42.2205C23.4319 42.2205 27.2619 46.7005 33.3319 43.2005C39.4019 39.6905 45.6219 29.9805 45.6219 29.9805C45.6219 29.9805 34.0919 30.0605 27.8919 33.3205Z" fill="#82C341"/>
</g>
<defs>
<clipPath id="clip0_2836_7508">
<rect width="45.63" height="88.9" fill="white"/>
</clipPath>
</defs>
</svg>
